<?xml version="1.0" standalone="no"?>
<!DOCTYPE svg PUBLIC "-//W3C//DTD SVG 20010904//EN"
 "http://www.w3.org/TR/2001/REC-SVG-20010904/DTD/svg10.dtd">
<svg version="1.0" xmlns="http://www.w3.org/2000/svg"
 width="1080.000000pt" height="828.000000pt" viewBox="0 0 1080.000000 828.000000"
 preserveAspectRatio="xMidYMid meet">

<g transform="translate(0.000000,828.000000) scale(0.100000,-0.100000)"
fill="#000000" stroke="none">
<path d="M5005 8199 c-231 -34 -402 -253 -499 -637 -35 -137 -72 -343 -91
-507 -26 -220 -30 -704 -11 -1145 27 -609 35 -698 161 -1685 70 -550 76 -605
66 -663 -27 -147 -113 -305 -197 -361 -122 -80 -258 -57 -380 64 -167 166
-274 471 -379 1078 -19 109 -43 151 -95 162 -61 13 -178 -64 -221 -147 -43
-84 -50 -140 -59 -488 -12 -447 -33 -550 -136 -687 -81 -106 -170 -157 -274
-157 -168 1 -302 147 -353 382 -17 80 -20 134 -21 307 -1 186 2 220 22 298 45
179 147 352 284 482 167 159 288 207 603 241 86 9 159 21 172 29 72 47 7 130
-126 161 -88 21 -304 18 -421 -6 -466 -95 -820 -395 -934 -793 -48 -165 -60
-258 -60 -462 0 -207 11 -290 65 -493 84 -319 221 -538 419 -670 240 -161 527
-126 740 88 119 120 189 258 243 477 25 99 34 122 42 108 22 -38 136 -187 186
-245 82 -94 229 -213 322 -259 173 -87 317 -94 464 -25 100 48 231 189 298
323 l26 53 45 -76 c25 -42 75 -109 112 -148 129 -137 251 -193 422 -192 166 1
299 51 453 168 49 37 91 66 93 63 2 -2 -36 -382 -86 -843 -131 -1223 -140
-1318 -140 -1413 0 -161 52 -291 156 -391 74 -71 153 -110 239 -117 51 -4 64
-2 87 16 35 28 58 103 58 187 0 72 31 537 95 1409 24 336 52 729 61 875 9 146
18 267 19 268 2 2 37 -21 77 -52 140 -105 330 -176 473 -176 136 0 309 61 443
157 90 64 241 210 317 308 128 164 227 356 305 592 117 356 138 643 66 925
-86 340 -284 578 -536 643 -86 23 -230 16 -317 -15 -129 -45 -266 -157 -355
-290 -58 -86 -222 -414 -303 -605 l-55 -130 0 90 c0 50 7 180 14 290 16 221
12 263 -30 350 -35 70 -126 158 -201 192 -45 21 -74 27 -131 27 -99 1 -112
-13 -112 -128 0 -44 -5 -135 -10 -201 -5 -66 -16 -275 -25 -465 -19 -421 -39
-665 -60 -745 -50 -191 -179 -357 -310 -402 -71 -24 -186 -14 -252 21 -103 56
-190 173 -238 317 l-27 79 36 133 c83 306 192 879 246 1287 90 683 155 1275
186 1689 20 275 15 683 -10 831 -56 323 -161 511 -336 600 -95 48 -212 66
-325 49z m99 -518 c51 -56 66 -236 66 -795 0 -641 -27 -1204 -86 -1796 -32
-332 -81 -663 -83 -574 -1 11 -14 153 -30 315 -63 628 -66 689 -65 1309 0 567
8 794 39 1075 33 297 83 485 129 485 7 0 21 -9 30 -19z m2452 -2885 c56 -65
69 -133 69 -361 -1 -291 -32 -504 -110 -745 -66 -202 -179 -433 -258 -525 -85
-100 -211 -128 -315 -70 -190 104 -216 312 -97 770 44 168 126 405 181 524 94
200 235 374 349 428 74 36 138 28 181 -21z"/>
<path d="M8885 6711 c-11 -5 -29 -19 -40 -31 -25 -28 -26 -92 -2 -280 38 -293
32 -705 -14 -1085 -51 -417 -133 -810 -393 -1885 -196 -810 -203 -849 -171
-926 43 -103 165 -217 309 -290 105 -52 156 -58 182 -19 8 13 31 86 49 162 54
224 129 411 290 728 314 615 668 1095 807 1095 39 0 76 -26 98 -70 59 -115 27
-279 -125 -655 -81 -199 -122 -325 -161 -490 -35 -151 -44 -390 -19 -520 34
-181 104 -317 229 -441 92 -91 177 -151 312 -218 313 -155 486 -163 459 -20
-5 30 -29 61 -119 153 -237 245 -332 452 -343 746 -9 236 23 399 176 890 49
160 99 326 110 369 52 201 3 383 -144 531 -207 209 -494 220 -760 30 -131 -93
-298 -297 -499 -609 -53 -81 -96 -146 -96 -142 0 3 25 99 55 213 96 364 147
666 185 1083 64 720 51 1027 -55 1346 -40 119 -113 270 -146 301 -43 40 -122
55 -174 34z"/>
<path d="M2010 5389 c-95 -25 -274 -111 -374 -178 -266 -180 -539 -492 -767
-876 -45 -77 -86 -144 -90 -149 -5 -5 -13 4 -19 20 -33 86 -126 254 -162 291
-110 113 -333 148 -449 70 -45 -30 -47 -55 -9 -156 17 -46 190 -572 385 -1170
458 -1404 445 -1369 508 -1437 58 -64 114 -99 198 -125 149 -46 329 -2 329 81
0 14 -38 127 -84 251 -177 476 -206 573 -247 839 -31 195 -34 657 -6 843 36
236 101 445 204 651 186 372 414 626 729 811 140 82 153 92 165 121 13 35 -12
89 -53 114 -44 26 -156 26 -258 -1z"/>
</g>
</svg>
